<?xml version="1.0" encoding="UTF-8" standalone="no"?>
<svg
   xmlns:dc="http://purl.org/dc/elements/1.1/"
   xmlns:cc="http://creativecommons.org/ns#"
   xmlns:rdf="http://www.w3.org/1999/02/22-rdf-syntax-ns#"
   xmlns:svg="http://www.w3.org/2000/svg"
   xmlns="http://www.w3.org/2000/svg"
   xmlns:sodipodi="http://sodipodi.sourceforge.net/DTD/sodipodi-0.dtd"
   xmlns:inkscape="http://www.inkscape.org/namespaces/inkscape"
   id="svg8"
   version="1.1"
   viewBox="0 -282.74 282.74 282.74"
   height="16"
   width="16"
   sodipodi:docname="star.svg"
   inkscape:version="0.92.3 (unknown)">
  <sodipodi:namedview
     pagecolor="#ffffff"
     bordercolor="#666666"
     borderopacity="1"
     objecttolerance="10"
     gridtolerance="10"
     guidetolerance="10"
     inkscape:pageopacity="0"
     inkscape:pageshadow="2"
     inkscape:window-width="1920"
     inkscape:window-height="1056"
     id="namedview861"
     showgrid="false"
     inkscape:zoom="0.44169433"
     inkscape:cx="199.63268"
     inkscape:cy="633.82634"
     inkscape:window-x="0"
     inkscape:window-y="24"
     inkscape:window-maximized="1"
     inkscape:current-layer="svg8" />
  <defs
     id="defs2" />
  <metadata
     id="metadata5">
    <rdf:RDF>
      <cc:Work
         rdf:about="">
        <dc:format>image/svg+xml</dc:format>
        <dc:type
           rdf:resource="http://purl.org/dc/dcmitype/StillImage" />
        <dc:title></dc:title>
      </cc:Work>
    </rdf:RDF>
  </metadata>
  <g
     transform="translate(10.252107,-268.25452)"
     id="layer2">
    <path
       id="path851-3"
       d="m 247.14548,97.970659 c -19.94037,17.081041 -41.56872,35.608031 -59.96135,51.363261 6.10638,25.59938 12.21277,51.19877 18.31914,76.79816 2.62019,10.96886 2.6171,10.97122 -7.00847,5.09195 -22.45948,-13.71817 -44.91895,-27.43635 -67.37843,-41.15452 -22.85529,13.95992 -46.86833,28.62699 -67.378454,41.15449 -9.628667,5.87689 -9.625457,5.87923 -7.008466,-5.09196 6.106395,-25.59939 12.21279,-51.19876 18.31919,-76.79814 -19.98711,-17.1211 -39.97422,-34.2422 -59.961329,-51.363301 -8.5658593,-7.33757 -8.5651043,-7.34007 2.676999,-8.23895 26.23344,-2.10311 52.46688,-4.20623 78.70032,-6.309339 10.10678,-24.299582 20.21354,-48.599167 30.32032,-72.898745 4.33147,-10.41410609 4.33144,-10.41410609 8.66294,3e-6 l 30.32028,72.898763 c 26.23344,2.103128 52.46688,4.206248 78.70032,6.309378 11.24372,0.90387 11.24209,0.89888 2.67699,8.23895 z"
       style="display:inline;fill:#ffcc00;fill-opacity:1;stroke:#000000;stroke-width:15;stroke-miterlimit:4;stroke-dasharray:none;stroke-opacity:1"
       inkscape:connector-curvature="0" />
  </g>
</svg>
